<?xml version="1.0" standalone="no"?>
<svg xmlns:xlink="http://www.w3.org/1999/xlink" id="wave" style="transform:rotate(180deg); transition: 0.3s" viewBox="0 0 1440 230" version="1.1" xmlns="http://www.w3.org/2000/svg"><defs><linearGradient id="sw-gradient-0" x1="0" x2="0" y1="1" y2="0"><stop stop-color="rgba(38.691, 0, 255, 1)" offset="0%"/><stop stop-color="rgba(11, 222, 255, 1)" offset="100%"/></linearGradient></defs><path style="transform:translate(0, 0px); opacity:1" fill="url(#sw-gradient-0)" d="M0,23L14.1,34.5C28.2,46,56,69,85,95.8C112.9,123,141,153,169,172.5C197.6,192,226,199,254,184C282.4,169,311,130,339,126.5C367.1,123,395,153,424,157.2C451.8,161,480,138,508,111.2C536.5,84,565,54,593,34.5C621.2,15,649,8,678,15.3C705.9,23,734,46,762,57.5C790.6,69,819,69,847,84.3C875.3,100,904,130,932,122.7C960,115,988,69,1016,46C1044.7,23,1073,23,1101,46C1129.4,69,1158,115,1186,115C1214.1,115,1242,69,1271,49.8C1298.8,31,1327,38,1355,61.3C1383.5,84,1412,123,1440,145.7C1468.2,169,1496,176,1525,149.5C1552.9,123,1581,61,1609,42.2C1637.6,23,1666,46,1694,69C1722.4,92,1751,115,1779,130.3C1807.1,146,1835,153,1864,145.7C1891.8,138,1920,115,1948,99.7C1976.5,84,2005,77,2019,72.8L2032.9,69L2032.9,230L2018.8,230C2004.7,230,1976,230,1948,230C1920,230,1892,230,1864,230C1835.3,230,1807,230,1779,230C1750.6,230,1722,230,1694,230C1665.9,230,1638,230,1609,230C1581.2,230,1553,230,1525,230C1496.5,230,1468,230,1440,230C1411.8,230,1384,230,1355,230C1327.1,230,1299,230,1271,230C1242.4,230,1214,230,1186,230C1157.6,230,1129,230,1101,230C1072.9,230,1045,230,1016,230C988.2,230,960,230,932,230C903.5,230,875,230,847,230C818.8,230,791,230,762,230C734.1,230,706,230,678,230C649.4,230,621,230,593,230C564.7,230,536,230,508,230C480,230,452,230,424,230C395.3,230,367,230,339,230C310.6,230,282,230,254,230C225.9,230,198,230,169,230C141.2,230,113,230,85,230C56.5,230,28,230,14,230L0,230Z"/><defs><linearGradient id="sw-gradient-1" x1="0" x2="0" y1="1" y2="0"><stop stop-color="rgba(44.707, 19.307, 234.829, 1)" offset="0%"/><stop stop-color="rgba(11, 221.939, 255, 1)" offset="100%"/></linearGradient></defs><path style="transform:translate(0, 50px); opacity:0.9" fill="url(#sw-gradient-1)" d="M0,46L14.1,49.8C28.2,54,56,61,85,65.2C112.9,69,141,69,169,57.5C197.6,46,226,23,254,30.7C282.4,38,311,77,339,103.5C367.1,130,395,146,424,141.8C451.8,138,480,115,508,115C536.5,115,565,138,593,149.5C621.2,161,649,161,678,153.3C705.9,146,734,130,762,130.3C790.6,130,819,146,847,126.5C875.3,107,904,54,932,49.8C960,46,988,92,1016,99.7C1044.7,107,1073,77,1101,72.8C1129.4,69,1158,92,1186,118.8C1214.1,146,1242,176,1271,168.7C1298.8,161,1327,115,1355,95.8C1383.5,77,1412,84,1440,80.5C1468.2,77,1496,61,1525,65.2C1552.9,69,1581,92,1609,103.5C1637.6,115,1666,115,1694,130.3C1722.4,146,1751,176,1779,164.8C1807.1,153,1835,100,1864,72.8C1891.8,46,1920,46,1948,46C1976.5,46,2005,46,2019,46L2032.9,46L2032.9,230L2018.8,230C2004.7,230,1976,230,1948,230C1920,230,1892,230,1864,230C1835.3,230,1807,230,1779,230C1750.6,230,1722,230,1694,230C1665.9,230,1638,230,1609,230C1581.2,230,1553,230,1525,230C1496.5,230,1468,230,1440,230C1411.8,230,1384,230,1355,230C1327.1,230,1299,230,1271,230C1242.4,230,1214,230,1186,230C1157.6,230,1129,230,1101,230C1072.9,230,1045,230,1016,230C988.2,230,960,230,932,230C903.5,230,875,230,847,230C818.8,230,791,230,762,230C734.1,230,706,230,678,230C649.4,230,621,230,593,230C564.7,230,536,230,508,230C480,230,452,230,424,230C395.3,230,367,230,339,230C310.6,230,282,230,254,230C225.9,230,198,230,169,230C141.2,230,113,230,85,230C56.5,230,28,230,14,230L0,230Z"/><defs><linearGradient id="sw-gradient-2" x1="0" x2="0" y1="1" y2="0"><stop stop-color="rgba(83.332, 62, 243, 1)" offset="0%"/><stop stop-color="rgba(11, 172.347, 255, 1)" offset="100%"/></linearGradient></defs><path style="transform:translate(0, 100px); opacity:0.8" fill="url(#sw-gradient-2)" d="M0,0L14.1,3.8C28.2,8,56,15,85,42.2C112.9,69,141,115,169,138C197.6,161,226,161,254,138C282.4,115,311,69,339,57.5C367.1,46,395,69,424,84.3C451.8,100,480,107,508,99.7C536.5,92,565,69,593,76.7C621.2,84,649,123,678,145.7C705.9,169,734,176,762,180.2C790.6,184,819,184,847,157.2C875.3,130,904,77,932,49.8C960,23,988,23,1016,53.7C1044.7,84,1073,146,1101,141.8C1129.4,138,1158,69,1186,46C1214.1,23,1242,46,1271,53.7C1298.8,61,1327,54,1355,69C1383.5,84,1412,123,1440,122.7C1468.2,123,1496,84,1525,61.3C1552.9,38,1581,31,1609,30.7C1637.6,31,1666,38,1694,46C1722.4,54,1751,61,1779,65.2C1807.1,69,1835,69,1864,65.2C1891.8,61,1920,54,1948,46C1976.5,38,2005,31,2019,26.8L2032.9,23L2032.9,230L2018.8,230C2004.7,230,1976,230,1948,230C1920,230,1892,230,1864,230C1835.3,230,1807,230,1779,230C1750.6,230,1722,230,1694,230C1665.9,230,1638,230,1609,230C1581.2,230,1553,230,1525,230C1496.5,230,1468,230,1440,230C1411.8,230,1384,230,1355,230C1327.1,230,1299,230,1271,230C1242.4,230,1214,230,1186,230C1157.6,230,1129,230,1101,230C1072.9,230,1045,230,1016,230C988.2,230,960,230,932,230C903.5,230,875,230,847,230C818.8,230,791,230,762,230C734.1,230,706,230,678,230C649.4,230,621,230,593,230C564.7,230,536,230,508,230C480,230,452,230,424,230C395.3,230,367,230,339,230C310.6,230,282,230,254,230C225.9,230,198,230,169,230C141.2,230,113,230,85,230C56.5,230,28,230,14,230L0,230Z"/></svg>